PathFileType	4	(X/Y/Z)	20_1_42_p0_0-389.trc
DataRate	CameraRate	NumFrames	NumMarkers	Units	OrigDataRate	OrigDataStartFrame	OrigNumFrames
60.0	60.0	5	27	m	60.0	341	390
Frame#	Time	RHip			RKnee			RAnkle			RBigToe			RSmallToe			RHeel			LHip			LKnee			LAnkle			LBigToe			LSmallToe			LHeel			Neck			Head			Nose			RShoulder			RElbow			RWrist			RThumb			RIndex			RPinky			LShoulder			LElbow			LWrist			LThumb			LIndex			LPinky			
		X1	Y1	Z1	X2	Y2	Z2	X3	Y3	Z3	X4	Y4	Z4	X5	Y5	Z5	X6	Y6	Z6	X7	Y7	Z7	X8	Y8	Z8	X9	Y9	Z9	X10	Y10	Z10	X11	Y11	Z11	X12	Y12	Z12	X13	Y13	Z13	X14	Y14	Z14	X15	Y15	Z15	X16	Y16	Z16	X17	Y17	Z17	X18	Y18	Z18	X19	Y19	Z19	X20	Y20	Z20	X21	Y21	Z21	X22	Y22	Z22	X23	Y23	Z23	X24	Y24	Z24	X25	Y25	Z25	X26	Y26	Z26	X27	Y27	Z27	
341	5.683333333333334	0.3028975930346845	0.48691949996519623	0.9035777765193341	0.3194749961047172	0.6070818397924806	1.3303427298042243	0.3256115814426468	0.7624584738888784	1.766574309215104	0.29683698738808123	0.5849912078583329	1.7892988489089334	0.35697311599168136	0.6263138818588249	1.7993112856871465	0.32165514221090646	0.898252364257435	1.852652459523675	0.13873709367583933	0.5673599208911178	0.9090506021662622	0.12876508044049423	0.6711126633507751	1.3375036862379313	0.14149419674890565	0.809369115918754	1.7844485380864508	0.1460578704344492	0.6073085246860156	1.8021979762331923	0.09162143987639698	0.6699323827319227	1.8091061429774458	0.16672737158989437	0.8425939251646726	1.8319002771865245	0.2055601985458435	0.33509780563514563	0.3595127925691998	0.14967823333592	0.1877582840949799	0.13762863984160234	0.12644090107197878	0.20298498058735803	0.27061477682422386	0.3508742782213133	0.3064298373432896	0.44456891037274415	0.4994217403811336	0.2509059423565035	0.6247637351617749	0.4348422210357548	0.0017901540555440225	0.7372545935744811	0.3489550461061802	-0.1657605834511888	0.7503655808646711	0.3808343069350304	-0.16663595895721345	0.7759099996488475	0.41917287728223473	-0.14246267997875584	0.8002196003073808	0.09652248775680919	0.4428795621147855	0.4106598387366513	0.11644307688514623	0.756124526638185	0.5666631095697402	-0.006347520633047221	0.9044750547175098	0.68706548756981	-0.03733984486993697	1.2724164268308193	0.7529491172567924	-0.11627110792512721	0.9677448293798286	0.7671934918219322	-0.05361660859203637	0.9216183595110999	0.791455706796449
342	5.7	0.3017946022974759	0.4861951243428805	0.9032241024793355	0.3195838037290608	0.6075437230887838	1.3303475087140748	0.3244838707953958	0.7590840836396111	1.761234759888225	0.2970980131901804	0.5843700540293175	1.7891303277919934	0.357062089594424	0.6258776764145357	1.7992409062924826	0.3218078599394196	0.898319427078805	1.852819262320603	0.1334827058733851	0.5809869680032379	0.9098679989137578	0.128652230033816	0.6716207654040685	1.3371854459454648	0.14145596070823926	0.8095166036426653	1.7845138178707032	0.14507228717635798	0.60395295449565	1.7972178927841862	0.09150412459934801	0.6697197523373827	1.808813058879517	0.1667147313855732	0.8420971798675365	1.8317087698986054	0.2090767894417973	0.3232406925868474	0.3605156753149054	0.1570330546912105	0.1775581934802833	0.1361420225140682	0.13358385770879894	0.18117455108509148	0.26995002842643256	0.35157337551962065	0.30579804152992796	0.44513340703360693	0.4989660676882882	0.2545471430735351	0.6380316206631824	0.430483028616138	0.007297577930762375	0.7438318395079572	0.34739393614900516	-0.15063920875231018	0.7467929593027641	0.37382456687541543	-0.16615089126627555	0.7756539446920041	0.39585970817820393	-0.14046335347801278	0.8032501317479273	0.0976039818621258	0.44377191073792827	0.4104538072145102	0.1067830111561352	0.7358189608456489	0.5843885696344993	-0.013530729460876344	0.8883753025458067	0.7125723981271238	-0.10771905770819291	0.9871917620977573	0.7683842375793479	-0.12029270880013393	0.9613216805433287	0.7864687944124918	-0.060338227707244015	0.9065951537430207	0.8000999401754484
343	5.716666666666667	0.30197380665022555	0.48503581011995917	0.9074834504746856	0.31957338980673233	0.6077443443639161	1.3302928916102608	0.32457557573033086	0.7591378299856918	1.7612425416864694	0.2971831379730357	0.5821372497991061	1.7928273635959953	0.35711491611680607	0.6257102474156131	1.799290074273408	0.320684932272584	0.8944042864094767	1.847069314899745	0.13397366762984794	0.5832595043514925	0.9148312115668479	0.12417615932634289	0.6549270006814091	1.3296714814330095	0.1376515145127133	0.7936914006577092	1.779083700656508	0.14607831500140778	0.6074794232351072	1.8023784420360267	0.09163809600714704	0.6702661083429434	1.8095501017437212	0.16077483025416345	0.837154207759157	1.8289191605138575	0.20926462381376257	0.32327023874140864	0.3536925962915555	0.15691002458084777	0.19917995557758164	0.13533746626361576	0.14035739383318288	0.1802334623351893	0.2699015898432759	0.3549401177384982	0.2931957763288743	0.44615548382413056	0.49502702569133633	0.26968551431063736	0.6534189238589578	0.4278220812165327	0.01921222416648976	0.7510124283594592	0.34538060898832534	-0.11564798642821135	0.7471638863213006	0.3621289492982209	-0.16151683258204116	0.7703319218842225	0.3791678813006966	-0.13818905444341445	0.8047741693615768	0.10067773758651082	0.453669636029811	0.4066054322019205	0.10705631019539254	0.7365106850464219	0.5958309508540394	-0.007515416771860344	0.9748203728433977	0.7529835613117163	-0.1191261533103214	0.9945583060997205	0.7859105025658112	-0.13212610537591393	0.9817526092746321	0.8024042488155	-0.08572495050760676	0.8674632824280334	0.8415479456371063
344	5.733333333333333	0.3018246543838592	0.4859589282199755	0.9035600982934593	0.319558644898171	0.6076481967096152	1.3302676449035575	0.32557702459843285	0.7625878782002609	1.7666687298831734	0.2970561143590063	0.582009181019607	1.7927277418027479	0.35707479297784167	0.6258629722718546	1.7992715302015037	0.3218007887344288	0.8980706318758135	1.8527806940041913	0.13378662178106776	0.5842142984778558	0.9107758906428458	0.12495348595224723	0.6578956328462207	1.3341074781167486	0.13758468946513994	0.7939311078868699	1.7791544188097523	0.14596145953788234	0.6074706808794109	1.8023939201071457	0.09154573846128532	0.6703216182162409	1.8095890782121866	0.15689013847109173	0.8225665538038438	1.8235694112042222	0.21261406626709678	0.31160996902602967	0.3546394044722675	0.16378300189636405	0.19977889893570103	0.1316014074489572	0.1447017829641478	0.18236790410746834	0.26976037275679043	0.3598401814685988	0.30336975016153617	0.44943603361181345	0.4899489524982839	0.2856404764507595	0.6650041328244819	0.41738429099177826	0.022455801793851957	0.7678380083067592	0.338652097811687	-0.08130210391542136	0.7494778567588322	0.34770560061301686	-0.13165398116053495	0.7723426341961783	0.36719437012825956	-0.0941557873671817	0.8116383390176959	0.10105972843275629	0.4543051773854292	0.4064342397848633	0.10686602237202789	0.738561057222198	0.6098800443278193	-0.030282569331564757	0.8887411021711796	0.7656935270006618	-0.12459876973378774	0.9618067813516019	0.813843633649452	-0.13741669374032747	0.9554754196150004	0.8442237930776476	-0.10063434504372601	0.8695361046600676	0.8683647791669461
345	5.75	0.3061445750130012	0.4859863950198602	0.9074264678041571	0.3195808836661367	0.6077270034013953	1.3302363783281637	0.325508500773715	0.762392054776351	1.766591127754561	0.2967554808446932	0.5834925727665802	1.7972007644754735	0.361997989315115	0.6256255312926599	1.7992199024809534	0.3174301867311128	0.8815196135190843	1.8472849036229932	0.133160488580974	0.5814936266074632	0.906414161342967	0.12402602272791899	0.6546722379726744	1.329537866269413	0.13754899525327346	0.7939262377283478	1.7791854794366286	0.14137633747655468	0.6035027379899247	1.8053394101349405	0.0866261254950987	0.6679993805132153	1.8088281819486018	0.156674622503754	0.8219129149689088	1.823140751190657	0.21271979588766335	0.3117447668277014	0.3547196253865583	0.17153507612714827	0.20114825400928768	0.1313096135710386	0.14494285714603541	0.18229166512755116	0.269778846456376	0.3603237057616445	0.30373327781893816	0.44986959396013326	0.48273148678659844	0.3128967892885985	0.6782835090249242	0.41193342615905676	0.024801937082143805	0.7747903127260113	0.33057731623270353	-0.08049776844394725	0.7586259809780703	0.33928538685493975	-0.13295080209970545	0.783155486879375	0.3589335895223744	-0.08068544881047458	0.817449258586962	0.1042902516105919	0.4674309635428219	0.4086134107733917	0.08971140951000203	0.6887677117111128	0.6261721094499663	-0.043169745777554946	0.7892891475070042	0.7695081515116886	-0.12734589759594353	0.9054664562169847	0.829988259257737	-0.14452471388483984	0.9156157234901786	0.8541102672270732	-0.10043349248114593	0.8383988501281049	0.8801500083127204
